<svg height="512" viewBox="0 0 512 512" width="512" xmlns="http://www.w3.org/2000/svg"><g id="Flat"><path d="m272 80v-24a16 16 0 0 1 16-16 16 16 0 0 1 16 16v24z" fill="#047fa7"/><path d="m216 120v-24a24 24 0 0 1 24-24h96a24 24 0 0 1 24 24v24z" fill="#0093ba"/><path d="m453.355 288a16.786 16.786 0 0 1 -16.355-13.013l-4.38-18.987-11.24-48.693a20 20 0 0 0 -27.366-13.884l-34.014 14.577-8-72h75.191a32 32 0 0 1 31.824 28.651l9.615 91.349 1.417 13.457a16.785 16.785 0 0 1 -16.692 18.543z" fill="#d18b29"/><path d="m453.355 288a16.786 16.786 0 0 1 -16.355-13.013l-4.38-18.987h36.01l1.417 13.457a16.785 16.785 0 0 1 -16.692 18.543z" fill="#b47823"/><path d="m365.94 488h-154.75a32 32 0 0 1 -31.85-35.03l18.38-192.98 10.28-107.99-24-24a24 24 0 0 1 24-24h168l8.52 136.22 13.36 213.78a32 32 0 0 1 -31.94 34z" fill="#ccdce5"/><path d="m397.88 454-13.36-213.78c-1.67-.14-3.43-.22-5.32-.22-30.4 0-30.4 20-60.81 20a59.615 59.615 0 0 1 -6.39-.339v132.339a24 24 0 0 1 -48 0v-151.659a59.7 59.7 0 0 0 -6.41-.341c-30.09 0-30.4 19.59-59.87 19.99l-18.38 192.98a32 32 0 0 0 31.85 35.03h154.75a32 32 0 0 0 31.94-34z" fill="#8c6439"/><path d="m312 136h8a24 24 0 0 0 24-24v-8h-112v8a24 24 0 0 0 24 24h8v104.341c22.168 2.382 25.82 16.946 48 19.32z" fill="#abbac2"/><path d="m288 416a24 24 0 0 0 24-24v-132.339c-22.18-2.374-25.832-16.938-48-19.32v151.659a24 24 0 0 0 24 24z" fill="#704a22"/><path d="m232 312-2.4 52.71-5.6 123.29h-128l-5.13-112.96-2.87-63.04z" fill="#704a22"/><path d="m216 312-2.4 52.71-5.6 123.29h-128l-5.13-112.96-2.87-63.04z" fill="#ccdce5"/><path d="m123.17 360.78a56 56 0 0 0 -9.58-.78 59.619 59.619 0 0 0 -6.66.36l-7.16-48.36-11.68-78.83 15.82-2.34 12.03 81.17z" fill="#abbac2"/><path d="m174.39 380c-26.814 0-29.989-15.552-51.224-19.223l12.748 86.051-15.828 2.344-13.158-88.813c-15.489 1.741-21.886 9.454-32.058 14.681l5.13 112.96h128l5.6-123.29c-11.83 5.92-18.39 15.29-39.21 15.29z" fill="#8c6439"/><path d="m135.914 446.828-12.748-86.051a55.9 55.9 0 0 0 -9.576-.777 59.681 59.681 0 0 0 -6.662.359l13.158 88.813z" fill="#704a22"/><path d="m115.94 312h-16.17l-11.68-78.83 15.82-2.34z" fill="#798b9b"/></g></svg>