<svg enable-background="new 0 0 140 140" height="512" viewBox="0 0 140 140" width="512" xmlns="http://www.w3.org/2000/svg"><circle cx="70" cy="70" fill="#344d5b" r="64"/><path d="m106.77668 41.7053757c-.9000244-1.300293-2.4000244-2.1503906-4.1099854-2.1503906h-65.3400306c-2.7600098 0-5 2.2402344-5 5v50.8901367c0 1.2700195.4699707 2.4199219 1.25 3.300293.1199951.1499023.2600098.2797852.3900146.3896484l34.8292885 34.8344803c.4020386.0073242.8002319.0302734 1.2040405.0302734 35.3463135 0 63.9999924-28.6538162 63.9999924-64.0000076 0-.3652344-.0214233-.7250977-.0275269-1.0888672l-27.1558151-27.1557617z" opacity=".1"/><path d="m102.6712723 39.5598679h-65.342289c-2.7614746 0-5 2.2382812-5 5v50.6699219c0 2.8774414 2.2385254 5.2104492 5 5.2104492h65.3422852c2.7613525 0 5-2.3330078 5-5.2104492v-50.6699219c.0000038-2.7617188-2.2386437-5-4.9999962-5z" fill="#ededed"/><path d="m38.328941 52.295288h63.342285v42.14502h-63.342285z" fill="#4da0dc"/><g fill="#dd584d"><circle cx="40.918" cy="45.928" r="2.042"/><circle cx="49.164" cy="45.928" r="2.042"/><circle cx="57.41" cy="45.928" r="2.042"/></g><g fill="#ededed"><path d="m60.5262756 62.7754707c-.8220711-.8220711-2.1553688-.8223648-2.9786148 0l-9.1030273 9.1030235c-.3948746.3951721-.6166992.9307785-.6166992 1.4893112 0 .5585251.2218246 1.0941391.6166992 1.4890137l9.1030273 9.1030197c.4113274.4113312.9504662.6169968 1.4893074.6169968s1.0779762-.2056656 1.4893074-.6169968c.8223648-.8223648.8223648-2.1556625 0-2.9783173l-7.6140099-7.6137161 7.6140099-7.6137161c.8223648-.8226623.8223648-2.1559562 0-2.9786186z"/><path d="m91.5555344 71.8784943-9.1030273-9.1030235c-.8226547-.8223648-2.1559525-.8223648-2.9786148 0-.8223648.8226624-.8223648 2.1559563 0 2.9786186l7.6140137 7.6137161-7.6140137 7.6137161c-.8223648.8226547-.8223648 2.1559525 0 2.9783173.4113312.4113312.9501724.6169968 1.4893112.6169968.5388412 0 1.0779724-.2056656 1.4893036-.6169968l9.1030273-9.1030197c.3948746-.3948746.6166992-.9304886.6166992-1.4890137 0-.5585327-.2218247-1.0941391-.6166992-1.4893112z"/><path d="m75.3232803 57.8218842c-1.0994263-.3763657-2.2978668.2094841-2.6745224 1.3100853l-9.2819557 27.1069374c-.3769531 1.1006012.2097778 2.2981567 1.3100853 2.6748123.2259369.0775681.455986.1139984.6825104.1139984.8752518 0 1.692627-.5500031 1.992012-1.4243774l9.2819595-27.106636c.3769532-1.1006013-.2097854-2.2981607-1.3100891-2.67482z"/></g></svg>