<svg height="512" viewBox="0 0 512 512" width="512" xmlns="http://www.w3.org/2000/svg"><g id="BULINE"><circle cx="256" cy="256" fill="#27273d" r="256"/></g><g id="Icons"><path d="m88.95 94.77h327.44a21.07 21.07 0 0 1 21.07 21.07v273.4a0 0 0 0 1 0 0h-369.58a0 0 0 0 1 0 0v-273.4a21.07 21.07 0 0 1 21.07-21.07z" fill="#d3d3d3"/><rect fill="#41c0e3" height="206.4" rx="7.62" width="324.2" x="90.57" y="125.02"/><path d="m157 94.77a21.07 21.07 0 0 0 -21 21.07v273.4h-68.12v-273.4a21.07 21.07 0 0 1 21.12-21.07z" fill="#c1c1c1"/><path d="m136 125v206.43h-37.81a7.63 7.63 0 0 1 -7.62-7.63v-191.15a7.63 7.63 0 0 1 7.62-7.65z" fill="#3db5d1"/><circle cx="391.35" cy="176.33" fill="#7cc8fb" r="14.44"/><circle cx="391.35" cy="146.24" fill="#7cc8fb" r="10.23"/><path d="m456.91 362.68v27.1a25.93 25.93 0 0 1 -25.91 25.94h-356.64a25.93 25.93 0 0 1 -25.93-25.94v-27.1a8.74 8.74 0 0 1 8.74-8.74h129.15a10.15 10.15 0 0 1 10 8.41l2 11.65a13.1 13.1 0 0 0 12.89 10.84h82.83a13.09 13.09 0 0 0 12.96-10.84l2-11.66a10.16 10.16 0 0 1 10-8.4h129.17a8.74 8.74 0 0 1 8.74 8.74z" fill="#fff"/><path d="m456.91 381v10.81a25.92 25.92 0 0 1 -25.91 25.89h-356.64a25.93 25.93 0 0 1 -25.93-25.93v-10.77a25.93 25.93 0 0 0 25.93 25.9h356.64a25.93 25.93 0 0 0 25.91-25.9z" fill="#d3d3d3"/><g fill="#4f4f74"><rect height="12.07" rx="1.62" width="7.2" x="90.57" y="338.09"/><rect height="12.07" rx="1.62" width="7.2" x="103" y="338.09"/><rect height="12.07" rx="1.62" width="7.2" x="115.42" y="338.09"/><circle cx="252.67" cy="109.9" r="7.2"/></g></g></svg>